/* XPM */
static char * C:\Users\esamsaj\Documents\GitHub\gamecredits\share\pixmaps\bitcoin32_xpm[] = {
"32 32 111 2",
"  	c None",
". 	c #98C01F",
"+ 	c #97BF1F",
"@ 	c #98C01E",
"# 	c #97BF1E",
"$ 	c #97C01E",
"% 	c #96BF1C",
"& 	c #8FBA0D",
"* 	c #91BC12",
"= 	c #9CC22A",
"- 	c #9CC228",
"; 	c #90BA0F",
"> 	c #90BB0F",
", 	c #96BE1C",
"' 	c #B1CF58",
") 	c #D7E6AB",
"! 	c #FAFBF4",
"~ 	c #FFFFFF",
"{ 	c #F6F9ED",
"] 	c #D4E4A2",
"^ 	c #ABCB4A",
"/ 	c #90BB10",
"( 	c #96BE1E",
"_ 	c #94BD18",
": 	c #ADCC4E",
"< 	c #F5F9EB",
"[ 	c #FEFEFE",
"} 	c #FEFFFF",
"| 	c #FFFEFF",
"1 	c #EEF4DA",
"2 	c #A5C73C",
"3 	c #D5E4A4",
"4 	c #C6DC86",
"5 	c #91BB11",
"6 	c #E5EFC8",
"7 	c #FEFEFF",
"8 	c #D3E4A0",
"9 	c #ACCB4C",
"0 	c #90BA0E",
"a 	c #8DB909",
"b 	c #92BC12",
"c 	c #B0CE54",
"d 	c #D7E6AA",
"e 	c #D8E6AC",
"f 	c #94BD17",
"g 	c #D6E5A8",
"h 	c #E7F0CD",
"i 	c #98BF20",
"j 	c #97BF1D",
"k 	c #98BF1F",
"l 	c #96BE1B",
"m 	c #9DC22C",
"n 	c #EEF4DC",
"o 	c #C5DB83",
"p 	c #B0CE53",
"q 	c #D9E7AE",
"r 	c #E4EEC6",
"s 	c #FEFFFE",
"t 	c #A3C638",
"u 	c #8FBA0E",
"v 	c #F8FAF0",
"w 	c #E6EFCA",
"x 	c #91BC11",
"y 	c #EFF5DE",
"z 	c #E9F1D1",
"A 	c #91BB12",
"B 	c #B6D160",
"C 	c #96BE1D",
"D 	c #9FC430",
"E 	c #A7C940",
"F 	c #95BE1A",
"G 	c #DCE9B5",
"H 	c #CFE198",
"I 	c #96BE1A",
"J 	c #DBE8B2",
"K 	c #D0E29A",
"L 	c #A7C840",
"M 	c #B5D160",
"N 	c #F9FBF3",
"O 	c #98C020",
"P 	c #8DB908",
"Q 	c #A4C73A",
"R 	c #F7FAEE",
"S 	c #98C021",
"T 	c #ADCC4D",
"U 	c #C7DD86",
"V 	c #C9DE8A",
"W 	c #9EC32E",
"X 	c #C2DA7E",
"Y 	c #A5C73D",
"Z 	c #AFCD53",
"` 	c #CCE091",
" .	c #CBDF8E",
"..	c #CBDF8F",
"+.	c #D7E6A9",
"@.	c #EFF6DE",
"#.	c #9DC22B",
"$.	c #EEF5DC",
"%.	c #D1E29D",
"&.	c #F1F6E2",
"*.	c #C7DC86",
"=.	c #8AB703",
"-.	c #F5F9EC",
";.	c #91BB10",
">.	c #FAFBF5",
",.	c #F6F9EE",
"'.	c #FBFCF7",
").	c #A6C83F",
"!.	c #9CC229",
"~.	c #9DC32C",
"{.	c #9DC32D",
"                        . . . . . . . .                         ",
"                  . . . + + . . . . + + . . .                   ",
"              . . + . . . @ . . # . . . + . + .                 ",
"            . + . $ . . % & * = - ; > , . . + . . .             ",
"          . + . . . & ' ) ! ~ ~ ~ ~ { ] ^ / . # . + .           ",
"        . + ( . _ : < ~ [ ~ ~ ~ } ~ | [ ~ 1 2 % . . + .         ",
"      . + ( $ / 3 ~ [ ~ [ ~ ~ ~ ~ ~ ~ [ ~ [ ~ 4 * # . + .       ",
"    . + . @ 5 6 7 ~ [ ~ 8 9 0 a a b c d ~ [ | ~ e * . . .       ",
"    . . . f g 7 ~ ~ h i j # + . @ k . l m n [ ~ ~ o j $ . .     ",
"  . + + . p ~ ~ ~ q > . . . . . . . . . . 5 r [ s ~ t . + + .   ",
"  . . @ u v [ [ w > k $ . . . . . . . . . # x y [ [ z A $ . .   ",
"  . . . B ~ ~ ~ C . $ . . . . . . . . . . . . D ~ ~ ~ E # + .   ",
". + $ F G [ [ H # k . . . . . . . . . . . . . I J [ [ K # . + . ",
". + . a ~ ~ ~ L @ . . . . . . . . . . . . . . . M ~ ~ N 5 . . . ",
". . . O ~ ~ ~ P . . . . . . . . . . . . . . . k F 0 ; > . . . . ",
". . . Q ~ ~ R > . . . . . . . . . . . . . . . $ . . . . $ . . . ",
". . . Q ~ ~ R > . . . . . . . . . . . . . . . . . . . . @ + . . ",
". . . S ~ ~ ~ P . . . . . . . . . T U U U U U U U U U V W @ . . ",
". + . a ~ ~ ~ L @ . . . . . . . . X ~ ~ ~ ~ ~ ~ ~ ~ ~ ~ Y . . . ",
". + $ F G [ [ H # k . . . . . . . X ~ ~ ~ ~ ~ [ ~ ~ ~ ~ Y . . . ",
"  . + . B ~ ~ ~ C . $ . . . . . . Z ` `  .....+.~ ~ ~ ~ Y . . . ",
"  . . @ u v [ [ w > k $ . . . . # # # # . # x @.[ ~ ~ ~ Y . . . ",
"  . + + . p ~ ~ ~ q > . . . . . . . . . . 5 r [ s ~ ~ ~ Y . . . ",
"    . . . f g 7 ~ ~ h i j # + . @ k . l #.$.[ ~ ~ ~ ~ ~ Y . . . ",
"    . + . @ 5 6 7 ~ [ ~ 8 9 0 a a b c d ~ [ | ~ %.&.~ ~ Y . . . ",
"      . + # $ / 3 ~ [ ~ [ ~ ~ ~ ~ ~ ~ [ ~ [ ~ *.=.-.~ ~ Y . . . ",
"        . + # . _ : < ~ [ ~ ~ ~ } ~ | [ ~ 1 2 % ;.-.~ ~ Y . . . ",
"          . + . . . & ' ) >.~ ~ ~ ~ ,.] ^ / . # > '.~ ~ ).. . . ",
"            . . . $ . . % & * = !.; > , . . . . j ~.{.W O . . . ",
"              . . + . + . @ . . # . . . . . . . . # . . . . . . ",
"                  . . . + + . . . . . . . . . . . . . . . . . . ",
"                        . . . . . . . . . . . . . . . . . . . . "};
