/* XPM */
static char * C:\Users\esamsaj\Documents\GitHub\gamecredits\share\pixmaps\bitcoin64_xpm[] = {
"64 64 159 2",
"  	c None",
". 	c #98C01F",
"+ 	c #97BF1F",
"@ 	c #98C01E",
"# 	c #97BF1E",
"$ 	c #98BF1F",
"% 	c #95BE1A",
"& 	c #90BB0F",
"* 	c #93BD15",
"= 	c #9FC430",
"- 	c #A9CA46",
"; 	c #AECD50",
"> 	c #ADCD4E",
", 	c #A7C942",
"' 	c #9DC32A",
") 	c #92BB12",
"! 	c #91BB11",
"~ 	c #96BF1C",
"{ 	c #97C01E",
"] 	c #92BC13",
"^ 	c #9CC229",
"/ 	c #C0D878",
"( 	c #DCE9B3",
"_ 	c #F7FAEE",
": 	c #FFFFFF",
"< 	c #F2F7E4",
"[ 	c #D6E5A6",
"} 	c #B9D468",
"| 	c #96BE1A",
"1 	c #94BE18",
"2 	c #91BC12",
"3 	c #BCD66F",
"4 	c #EBF3D4",
"5 	c #FEFEFE",
"6 	c #FEFFFE",
"7 	c #FEFEFF",
"8 	c #E1ECBD",
"9 	c #B0CE55",
"0 	c #91BC11",
"a 	c #C1D97A",
"b 	c #FDFDFA",
"c 	c #FFFFFE",
"d 	c #F2F7E3",
"e 	c #B3D05B",
"f 	c #AACA46",
"g 	c #F5F9EB",
"h 	c #E8F0CD",
"i 	c #9CC22A",
"j 	c #CFE197",
"k 	c #B9D469",
"l 	c #93BD16",
"m 	c #EBF2D4",
"n 	c #F8FAF0",
"o 	c #F3F7E5",
"p 	c #FAFCF5",
"q 	c #D4E5A3",
"r 	c #98C020",
"s 	c #F4F8E8",
"t 	c #D9E7AD",
"u 	c #9EC32E",
"v 	c #90BB0E",
"w 	c #A4C739",
"x 	c #C0D877",
"y 	c #E2ECC0",
"z 	c #E2EDC2",
"A 	c #92BC14",
"B 	c #96BE1C",
"C 	c #F6F9ED",
"D 	c #BDD670",
"E 	c #96BE1B",
"F 	c #97C01F",
"G 	c #94BD18",
"H 	c #C8DC88",
"I 	c #FEFFFF",
"J 	c #E1ECC0",
"K 	c #ECF3D8",
"L 	c #91BB10",
"M 	c #D2E39F",
"N 	c #D2E39E",
"O 	c #94BD17",
"P 	c #D3E3A0",
"Q 	c #F1F6E1",
"R 	c #FBFDF9",
"S 	c #B6D262",
"T 	c #AECD4F",
"U 	c #E4EEC5",
"V 	c #92BD14",
"W 	c #9AC023",
"X 	c #9AC125",
"Y 	c #F9FBF3",
"Z 	c #E3EDC3",
"` 	c #F4F8E9",
" .	c #E3EDC2",
"..	c #93BC15",
"+.	c #C7DC86",
"@.	c #EFF5DD",
"#.	c #92BD13",
"$.	c #FDFEFB",
"%.	c #ADCC4D",
"&.	c #9AC124",
"*.	c #91BB13",
"=.	c #C4DA7E",
"-.	c #BCD56F",
";.	c #D8E7AB",
">.	c #A9CA45",
",.	c #97BF1D",
"'.	c #D8E7AC",
").	c #A5C73D",
"!.	c #B6D160",
"~.	c #CEE196",
"{.	c #C9DD8A",
"].	c #FBFDF8",
"^.	c #9DC32B",
"/.	c #AFCE53",
"(.	c #E7F0CD",
"_.	c #D0E299",
":.	c #EBF3D5",
"<.	c #CDE092",
"[.	c #AFCD53",
"}.	c #CBDF8E",
"|.	c #ECF3D7",
"1.	c #95BE19",
"2.	c #96BF1D",
"3.	c #F9FBF2",
"4.	c #EAF2D3",
"5.	c #BBD56D",
"6.	c #E2EEC2",
"7.	c #91BC10",
"8.	c #FDFDFB",
"9.	c #BDD672",
"0.	c #F8FBF2",
"a.	c #BBD56E",
"b.	c #8FBA0D",
"c.	c #99C123",
"d.	c #9AC123",
"e.	c #ADCD4D",
"f.	c #C7DC87",
"g.	c #FDFEFC",
"h.	c #A9CB46",
"i.	c #D3E39F",
"j.	c #C8DD88",
"k.	c #DEEAB9",
"l.	c #DFEBBA",
"m.	c #E2EDC0",
"n.	c #E2EDC1",
"o.	c #E3EEC4",
"p.	c #F2F7E5",
"q.	c #94BD16",
"r.	c #B3D05A",
"s.	c #F7FAEF",
"t.	c #D6E5A7",
"u.	c #E5EFC9",
"v.	c #BCD670",
"w.	c #ADCD4F",
"x.	c #A8C942",
"y.	c #91BB12",
"z.	c #AECD52",
"A.	c #AFCD52",
"B.	c #A0C431",
"                                                    . . . . . . . . . . . .                                                     ",
"                                            . . . . . . . . . . . . . . . . . . . .                                             ",
"                                      . . . . . . . . . . . . . . . . . . . . . . . . .                                         ",
"                                  . . . . . . . . . . . . . . . . . . . . . . . . . . . . .                                     ",
"                              . . . . . . . . . . . . . . . . . . . . . . . . . . . . . + . . .                                 ",
"                            . . . . . . . . . . . . . . . . . . . . . . . . . . . . . . . . + . . .                             ",
"                        . . . . . . . . . . . . . . . . @ . . . . . # . $ . . . . . . . . . . . . . .                           ",
"                      . . . . . . . . . . . . . . . % & * = - ; > , ' ) ! ~ + # . . . . . . . . . + . .                         ",
"                    . . . . . . . . . . { $ . ] ^ / ( _ : : : : : : : : < [ } | 1 + # . . . . . . . . . . .                     ",
"                  . . . . . . . . . @ . # 2 3 4 : : 5 : 6 : : : : : : 7 : 6 : : 8 9 ! . { . . . . . . . . . .                   ",
"                . . . . . . . . . . . 0 a b : c : : : : : : : : : : : : : : : : 5 : d e ] # . . . . . . . . . .                 ",
"              . . . . . . . . . # % f g : : c : : : : : : : : : : : : : : : : : : 5 c : h i # . . . . . . . . .                 ",
"            . . . . . . . . # { ] j : 5 5 : : : : : : : : : : 6 c : : : : : : : : : : : 5 : k l # . . . . . . . .               ",
"            . . . . . . . { $ % m : : : : : : : : : 6 : : : n d o p : : : 5 : : : : : : : : : q ] . @ . . . . . . .             ",
"          . . . . . . . # $ r s 5 5 : : : : 5 : : : t k u & & 0 ! v ] w x y : : : : : : : : : : z A . . . . . . + . .           ",
"        . . + . . . . @ # B s 5 5 : : : : : : C D 2 E + . . F . . $ @ . . G # H : I : : : : : : : J ] # . . . . . . .           ",
"        . . . . . . . + ] K 5 5 : : : 5 5 : a L . . # . . . . . . . . . . . . # G M : 5 6 : : : : : N O . . . . . . . .         ",
"      . . . . . . . . G P : 5 : : : : 5 Q ^ # . @ . . . . . . . . . . . . . . # . % f R 5 5 : : : : : S F . . . . . + .         ",
"      . . . . . . # . T : : : : : : : U V + . . . . . . . . . . . . . . . . . . . . . W s 5 5 : : : : : X { . . . . . . .       ",
"    . . . . . . . . ] Y c : : : 5 : Z ] @ { . . . . . . . . . . . . . . . . . . . . . $ B ` 5 : : : : 5  ...@ . . . . . .       ",
"    . . . . . . + # +.: 5 : : : 5 @.#.. . . . . . . . . . . . . . . . . . . . . . . . # . X $.6 : : : : : %.$ . . . . . . .     ",
"    . . . . . . . O : : : : : : : &.+ { . . . . . . . . . . . . . . . . . . . . . . . . . . %.: : : : : 5 m *.. . . . . . .     ",
"  . . . . . . . # =.: : : : 5 : -.F . . . . . . . . . . . . . . . . . . . . . . . . . . . . G ;.5 : : : 5 : >.{ . . . . . . .   ",
"  . . . . . . . L s : : : : c Q L $ . . . . . . . . . . . . . . . . . . . . . . . . . . . . . ,.: : : : : 5 '.E # . . . . . .   ",
"  . . . . . . . ).: 5 : : : : !.. . . . . . . . . . . . . . . . . . . . . . . . . . . . . . $ ,.~.7 : : : : : ! . . . . . . .   ",
"  . . . . . . # {.7 : : : : ].v + . . . . . . . . . . . . . . . . . . . . . . . . . . . . . . . ^.: : : : : : /.. . . . . . .   ",
". . . . . . { l (.5 : : : : _.# @ . . . . . . . . . . . . . . . . . . . . . . . . . . . . . . . ] :.: : : : : <.# . . . . . . . ",
". . . . . . . v : : : : : : [.@ . . . . . . . . . . . . . . . . . . . . . . . . . . . . . . . . + }.: : : : : |.* . . . . . . . ",
". . . . . . { ' : : : : : : 1.# . . . . . . . . . . . . . . . . . . . . . . . . . . . . . . . . . ~ B B B B B 2.# . . . . . . . ",
". . . . . . . %.: : : : : 3.v . . . . . . . . . . . . . . . . . . . . . . . . . . . . . . . . . { . . . . . . { . . . . . . . . ",
". . . . . . . S : : : : : 4.* . . . . . . . . . . . . . . . . . . . . . . . . . . . . . . . . . . . . . . . . . . . . . . . . . ",
". . . . . . . 5.: : : : : 6.G . . . . . . . . . . . . . . . . . . . . . . . . . . . . . . . . . . . . . . . . . . . . . . . . . ",
". . . . . . . 5.: : : : : 6.G . . . . . . . . . . . . . . . . . . . . . . . . . . . . . . . . . . . . . . . . . . . . . . . . . ",
". . . . . . . S : : : : : 4.* . . . . . . . . . . . . . . . . . . . . @ . . . . . . . . . . . . . . . . . . . . . @ . . . . . . ",
". . . . . . . %.: : : : : 3.v . . . . . . . . . . . . . . . . . . . . 0 7.7.7.7.7.7.7.7.7.7.7.7.7.7.7.7.7.7.7.7.1.+ . . . . . . ",
". . . . . . F ' : : : : : : 1.# . . . . . . . . . . . . . . . . . . v 8.: : : : : : : : : : : : : : : : : : : : 9.. . . . . . . ",
". . . . . . . v : : : : : : [.@ . . . . . . . . . . . . . . . . . . & 0.: : : : : : : : : : : : : : : : : : : : a.. . . . . . . ",
". . . . . . { l (.5 : : : : _.# @ . . . . . . . . . . . . . . . . . & 0.: : : : : : : : : : : : : : : : : : : : a.. . . . . . . ",
"  . . . . . . # {.7 : : : : ].v + . . . . . . . . . . . . . . . . . & 0.: : : : : : : : : : : : : : : : : : : : a.. . . . . . . ",
"  . . . . . . . ).: 5 : : : : !.. . . . . . . . . . . . . . . . . . & 0.: : : : : : : : : : : : : : : : : : : : a.. . . . . . . ",
"  . . . . . . . L s : : : : c Q L $ . . . . . . . . . . . . . . . . b.7 : : : : : : : : : : : : 5 : : : : : : : a.. . . . . . . ",
"  . . . . . . . # =.: : : : 5 : -.F . . . . . . . . . . . . . . . . # c.d.d.d.c.$ . . . . . E '.: : : : : : : : a.. . . . . . . ",
"    . . . . . . . O : : : : : : : &.+ { . . . . . . . . . . . . . . . # . . . . . . . . . . e.: : : : : : : : : a.. . . . . . . ",
"    . . . . . . + # f.: 5 : : : 5 @.#.. . . . . . . . . . . . . . . . . . . . . . . . # . X g.6 : : : : : : : : a.. . . . . . . ",
"      . . . . . . . ] Y c : : : 5 : Z ] @ { . . . . . . . . . . . . . . . . . . . . . $ B ` 5 : : : : : : : : : a.. . . . . . . ",
"      . . . . . . # . T : : : : : : : U V + . . . . . . . . . . . . . . . . . . . . . W s 5 5 : : : : : : : : : a.. . . . . . . ",
"      . . . . . . . . G P : 5 : : : : 5 Q ^ # . @ . . . . . . . . . . . . . . # . % h.].5 5 : : : : : : : : : : a.. . . . . . . ",
"        . . . . . . . + ] K 5 5 : : : 5 5 : a L . . # . . . . . . . . . . . . # O i.: 5 6 : : : : : : : : : : : a.. . . . . . . ",
"          . . . . . . @ # B s 5 5 : : : : : : C D 2 E + . . F . . $ @ . . G # j.: I : : : : : : : k.l.: : : : : a.. . . . . . . ",
"          . . . . . . . # $ r s 5 5 : : : : 5 : : : t k u & & 0 ! v ] w x m.: : : : : : : : : : n.b.o.: : : : : a.. . . . . . . ",
"            . . . . . . . { $ % m : : : : : : : : : 6 : : : n d p.p : : : 5 : : : : : : : : : q ] O o.: : : : : a.. . . . . . . ",
"              . . . . . . . # { ] j : 5 5 : : : : : : : : : : 6 c : : : : : : : : : : : 5 : } q.# O o.: : : : : a.. . . . . . . ",
"              . . . . . . . . . # % f g : : c : : : : : : : : : : : : : : : : : : 5 c : h i # . . O o.: : : : : a.. . . . . . . ",
"                . . . . . . . . . . . 0 a b : c : : : : : : : : : : : : : : : : 5 : d r.] # . . . O o.: : : : : a.. . . . . . . ",
"                  . . . . . . . . . @ . # 2 3 :.: : 5 : 6 : : : : : : 7 : 6 : : 8 9 ! . { . . . . O o.: : : : : a.. . . . . . . ",
"                    . . . . . . . . . . { $ . ] ^ / ( s.: : : : : : : : < t.} E 1 + # . . . . . . O u.: : : : : v.. . . . . . . ",
"                      . . . . . . . . . . . . . . . % & l = - ; w.x.' y.! ~ + # . . . . . . . . . ,.>.z.z.z.z.A.B.. . . . . . . ",
"                          . . . . . . . . . . . . . . . @ . . . . . # . $ . . . . . . . . . . . . # . . . . . . . . . . . . . . ",
"                            . . . . . . . . . . . . . . . . . . . . . . . . . . . . . . . . . . . . . . . . . . . . . . . . . . ",
"                                . . . . . . . . . . . . . . . . . . . . . . . . . . . . . . . . . . . . . . . . . . . . . . . . ",
"                                  . . . . . . . . . . . . . . . . . . . . . . . . . . . . . . . . . . . . . . . . . . . . . . . ",
"                                        . . . . . . . . . . . . . . . . . . . . . . . . . . . . . . . . . . . . . . . . . . . . ",
"                                            . . . . . . . . . . . . . . . . . . . . . . . . . . . . . . . . . . . . . . . . . . ",
"                                                    . . . . . . . . . . . . . . . . . . . . . . . . . . . . . . . . . . . . . . "};
