/* XPM */
static char * C:\Users\esamsaj\Documents\GitHub\gamecredits\share\pixmaps\bitcoin16_xpm[] = {
"16 16 80 1",
" 	c None",
".	c #98C01F",
"+	c #95BC1E",
"@	c #96BD1F",
"#	c #97BF1E",
"$	c #96BE1E",
"%	c #8FBA0D",
"&	c #90BA10",
"*	c #90B90E",
"=	c #90BB0E",
"-	c #96BF1E",
";	c #98C01E",
">	c #97BF20",
",	c #95BC19",
"'	c #CEE096",
")	c #FAFBF5",
"!	c #FFFFFF",
"~	c #F7F9F0",
"{	c #CADE8E",
"]	c #93BC16",
"^	c #98C020",
"/	c #97BF1F",
"(	c #A0C532",
"_	c #FCFCF9",
":	c #E0ECBE",
"<	c #C5DB81",
"[	c #C5DB82",
"}	c #E3EDC4",
"|	c #F8FAF1",
"1	c #9DC32D",
"2	c #97C01E",
"3	c #95BD1A",
"4	c #FCFDFA",
"5	c #FCFDF8",
"6	c #A2C536",
"7	c #94BE18",
"8	c #94BD17",
"9	c #A5C73E",
"0	c #FEFEFE",
"a	c #F8FAF0",
"b	c #93BD15",
"c	c #98BF1F",
"d	c #96BE1D",
"e	c #D0E19A",
"f	c #A1C534",
"g	c #A6C940",
"h	c #C8DD89",
"i	c #8DB90A",
"j	c #FDFDFB",
"k	c #DEEAB8",
"l	c #95BE19",
"m	c #94BD16",
"n	c #E9F1D1",
"o	c #FFFEFF",
"p	c #90BA0E",
"q	c #95BD19",
"r	c #C2DA7D",
"s	c #90BB0F",
"t	c #8CB806",
"u	c #95BC1F",
"v	c #9BC227",
"w	c #ACCC4C",
"x	c #ACCC4A",
"y	c #ABCC4A",
"z	c #ADCD4E",
"A	c #97BE1F",
"B	c #AACB48",
"C	c #98C021",
"D	c #9BC128",
"E	c #AFCE52",
"F	c #AECD50",
"G	c #C0D877",
"H	c #A5C83E",
"I	c #A0C432",
"J	c #F9FBF2",
"K	c #C9DD8D",
"L	c #C6DC85",
"M	c #99C022",
"N	c #95BE1B",
"O	c #94BD18",
"     ..+@..     ",
"   .#$%&*=-;#   ",
"  .>,')!!~{]^#  ",
" ./(_!:<[}!|1.2 ",
" #34567^^890abc ",
"2de!f^....^g!h$.",
".ijkl......mnop.",
"@q!r^....../st^u",
"@q!r^...vwxxyz/A",
".ijkl...B!!!!!C;",
"2de!f^..DEFG!!C.",
" #34567^^8H0!!C.",
" ./I_!:<[}!JK!C.",
"  .>,')!!~{8L!M.",
"   .#$%&p=2;NO#.",
"     ..+.....#.."};
